solid servo
facet normal -1.0 0.0 0.0
  outer loop
    vertex 87.46382054561788 239.89575755330932 14.0
    vertex 87.46382054561788 216.89575755330927 0.9999999999999999
    vertex 87.46382054561788 216.89575755330927 14.0
  endloop
endfacet
facet normal -1.0 0.0 0.0
  outer loop
    vertex 87.46382054561788 216.89575755330927 0.9999999999999999
    vertex 87.46382054561788 239.89575755330932 14.0
    vertex 87.46382054561788 239.89575755330932 0.9999999999999999
  endloop
endfacet
facet normal -0.0 1.0 -0.0
  outer loop
    vertex 76.96382054561786 241.89575755330932 1.181714
    vertex 78.96382054561786 241.89575755330932 5.000000000000001
    vertex 89.96382054561788 241.89575755330932 1.181714
  endloop
endfacet
facet normal -0.0 1.0 -0.0
  outer loop
    vertex 78.96382054561786 241.89575755330932 5.000000000000001
    vertex 76.96382054561786 241.89575755330932 1.181714
    vertex 76.96382054561786 241.89575755330932 14.0
  endloop
endfacet
facet normal -0.0 1.0 -0.0
  outer loop
    vertex 78.96382054561786 241.89575755330932 5.000000000000001
    vertex 76.96382054561786 241.89575755330932 14.0
    vertex 78.96382054561786 241.89575755330932 14.0
  endloop
endfacet
facet normal -0.0 1.0 -0.0
  outer loop
    vertex 89.96382054561788 241.89575755330932 1.181714
    vertex 82.46382054561788 241.89575755330932 5.000000000000001
    vertex 89.96382054561788 241.89575755330932 14.0
  endloop
endfacet
facet normal -0.0 1.0 -0.0
  outer loop
    vertex 82.46382054561788 241.89575755330932 5.000000000000001
    vertex 89.96382054561788 241.89575755330932 1.181714
    vertex 78.96382054561786 241.89575755330932 5.000000000000001
  endloop
endfacet
facet normal -0.0 1.0 -0.0
  outer loop
    vertex 89.96382054561788 241.89575755330932 14.0
    vertex 82.46382054561788 241.89575755330932 5.000000000000001
    vertex 82.46382054561788 241.89575755330932 14.0
  endloop
endfacet
facet normal -0.0 -0.0 1.0
  outer loop
    vertex 87.46382054561788 216.89575755330927 0.9999999999999999
    vertex 68.96382054561788 239.89575755330932 0.9999999999999999
    vertex 68.96382054561788 216.89575755330927 0.9999999999999999
  endloop
endfacet
facet normal -0.0 -0.0 1.0
  outer loop
    vertex 68.96382054561788 239.89575755330932 0.9999999999999999
    vertex 87.46382054561788 216.89575755330927 0.9999999999999999
    vertex 87.46382054561788 239.89575755330932 0.9999999999999999
  endloop
endfacet
facet normal 0.0 0.0 1.0
  outer loop
    vertex 89.96382054561788 214.89575755330927 14.0
    vertex 82.46382054561788 216.89575755330927 14.0
    vertex 82.46382054561788 214.89575755330927 14.0
  endloop
endfacet
facet normal 0.0 0.0 1.0
  outer loop
    vertex 82.46382054561788 216.89575755330927 14.0
    vertex 89.96382054561788 214.89575755330927 14.0
    vertex 87.46382054561788 216.89575755330927 14.0
  endloop
endfacet
facet normal 0.0 0.0 1.0
  outer loop
    vertex 87.46382054561788 216.89575755330927 14.0
    vertex 89.96382054561788 214.89575755330927 14.0
    vertex 87.46382054561788 239.89575755330932 14.0
  endloop
endfacet
facet normal 0.0 0.0 1.0
  outer loop
    vertex 87.46382054561788 239.89575755330932 14.0
    vertex 82.46382054561788 241.89575755330932 14.0
    vertex 82.46382054561788 239.89575755330932 14.0
  endloop
endfacet
facet normal 0.0 0.0 1.0
  outer loop
    vertex 82.46382054561788 241.89575755330932 14.0
    vertex 87.46382054561788 239.89575755330932 14.0
    vertex 89.96382054561788 241.89575755330932 14.0
  endloop
endfacet
facet normal 0.0 0.0 1.0
  outer loop
    vertex 89.96382054561788 241.89575755330932 14.0
    vertex 87.46382054561788 239.89575755330932 14.0
    vertex 89.96382054561788 214.89575755330927 14.0
  endloop
endfacet
facet normal 2.7351775713792055e-10 1.0 2.3537271634515706e-11
  outer loop
    vertex 68.96382054561788 216.89575755330927 0.9999999999999999
    vertex 78.96382054561786 216.89575755330927 5.000000000000001
    vertex 87.46382054561788 216.89575755330927 0.9999999999999999
  endloop
endfacet
facet normal 2.7351775713792055e-10 1.0 2.3537271634515706e-11
  outer loop
    vertex 78.96382054561786 216.89575755330927 5.000000000000001
    vertex 68.96382054561788 216.89575755330927 0.9999999999999999
    vertex 68.96382054561788 216.89575755330927 13.999999999999995
  endloop
endfacet
facet normal 2.7351775713792055e-10 1.0 2.3537271634515706e-11
  outer loop
    vertex 78.96382054561786 216.89575755330927 5.000000000000001
    vertex 68.96382054561788 216.89575755330927 13.999999999999995
    vertex 78.96382054561786 216.89575755330927 14.0
  endloop
endfacet
facet normal 2.7351775713792055e-10 1.0 2.3537271634515706e-11
  outer loop
    vertex 87.46382054561788 216.89575755330927 0.9999999999999999
    vertex 82.46382054561788 216.89575755330927 5.000000000000001
    vertex 87.46382054561788 216.89575755330927 14.0
  endloop
endfacet
facet normal 2.7351775713792055e-10 1.0 2.3537271634515706e-11
  outer loop
    vertex 82.46382054561788 216.89575755330927 5.000000000000001
    vertex 87.46382054561788 216.89575755330927 0.9999999999999999
    vertex 78.96382054561786 216.89575755330927 5.000000000000001
  endloop
endfacet
facet normal 2.7351775713792055e-10 1.0 2.3537271634515706e-11
  outer loop
    vertex 87.46382054561788 216.89575755330927 14.0
    vertex 82.46382054561788 216.89575755330927 5.000000000000001
    vertex 82.46382054561788 216.89575755330927 14.0
  endloop
endfacet
facet normal -1.0 0.0 0.0
  outer loop
    vertex 82.46382054561788 241.89575755330932 14.0
    vertex 82.46382054561788 239.89575755330932 5.000000000000001
    vertex 82.46382054561788 239.89575755330932 14.0
  endloop
endfacet
facet normal -1.0 0.0 0.0
  outer loop
    vertex 82.46382054561788 239.89575755330932 5.000000000000001
    vertex 82.46382054561788 241.89575755330932 14.0
    vertex 82.46382054561788 241.89575755330932 5.000000000000001
  endloop
endfacet
facet normal -1.0 0.0 0.0
  outer loop
    vertex 82.46382054561788 216.89575755330927 14.0
    vertex 82.46382054561788 214.89575755330935 5.000000000000001
    vertex 82.46382054561788 214.89575755330927 14.0
  endloop
endfacet
facet normal -1.0 0.0 0.0
  outer loop
    vertex 82.46382054561788 214.89575755330935 5.000000000000001
    vertex 82.46382054561788 216.89575755330927 14.0
    vertex 82.46382054561788 216.89575755330927 5.000000000000001
  endloop
endfacet
facet normal -0.0 -0.0 1.0
  outer loop
    vertex 82.46382054561788 214.89575755330935 5.000000000000001
    vertex 78.96382054561786 216.89575755330927 5.000000000000001
    vertex 78.96382054561786 214.89575755330935 5.000000000000001
  endloop
endfacet
facet normal -0.0 -0.0 1.0
  outer loop
    vertex 78.96382054561786 216.89575755330927 5.000000000000001
    vertex 82.46382054561788 214.89575755330935 5.000000000000001
    vertex 82.46382054561788 216.89575755330927 5.000000000000001
  endloop
endfacet
facet normal -5.1825970100828835e-11 -1.0 -4.45958574253177e-12
  outer loop
    vertex 68.96382054561788 239.89575755330932 0.9999999999999999
    vertex 78.96382054561786 239.89575755330932 5.000000000000001
    vertex 68.96382054561788 239.89575755330932 14.0
  endloop
endfacet
facet normal -5.1825970100828835e-11 -1.0 -4.45958574253177e-12
  outer loop
    vertex 78.96382054561786 239.89575755330932 5.000000000000001
    vertex 68.96382054561788 239.89575755330932 0.9999999999999999
    vertex 82.46382054561788 239.89575755330932 5.000000000000001
  endloop
endfacet
facet normal -5.1825970100828835e-11 -1.0 -4.45958574253177e-12
  outer loop
    vertex 68.96382054561788 239.89575755330932 14.0
    vertex 78.96382054561786 239.89575755330932 5.000000000000001
    vertex 78.96382054561786 239.89575755330932 14.0
  endloop
endfacet
facet normal -5.1825970100828835e-11 -1.0 -4.45958574253177e-12
  outer loop
    vertex 87.46382054561788 239.89575755330932 0.9999999999999999
    vertex 82.46382054561788 239.89575755330932 5.000000000000001
    vertex 68.96382054561788 239.89575755330932 0.9999999999999999
  endloop
endfacet
facet normal -5.1825970100828835e-11 -1.0 -4.45958574253177e-12
  outer loop
    vertex 82.46382054561788 239.89575755330932 5.000000000000001
    vertex 87.46382054561788 239.89575755330932 0.9999999999999999
    vertex 87.46382054561788 239.89575755330932 14.0
  endloop
endfacet
facet normal -5.1825970100828835e-11 -1.0 -4.45958574253177e-12
  outer loop
    vertex 82.46382054561788 239.89575755330932 5.000000000000001
    vertex 87.46382054561788 239.89575755330932 14.0
    vertex 82.46382054561788 239.89575755330932 14.0
  endloop
endfacet
facet normal 1.0 -0.0 -0.0
  outer loop
    vertex 78.96382054561786 241.89575755330932 5.000000000000001
    vertex 78.96382054561786 239.89575755330932 14.0
    vertex 78.96382054561786 239.89575755330932 5.000000000000001
  endloop
endfacet
facet normal 1.0 -0.0 -0.0
  outer loop
    vertex 78.96382054561786 239.89575755330932 14.0
    vertex 78.96382054561786 241.89575755330932 5.000000000000001
    vertex 78.96382054561786 241.89575755330932 14.0
  endloop
endfacet
facet normal -0.0 -0.0 1.0
  outer loop
    vertex 82.46382054561788 239.89575755330932 5.000000000000001
    vertex 78.96382054561786 241.89575755330932 5.000000000000001
    vertex 78.96382054561786 239.89575755330932 5.000000000000001
  endloop
endfacet
facet normal -0.0 -0.0 1.0
  outer loop
    vertex 78.96382054561786 241.89575755330932 5.000000000000001
    vertex 82.46382054561788 239.89575755330932 5.000000000000001
    vertex 82.46382054561788 241.89575755330932 5.000000000000001
  endloop
endfacet
facet normal 3.693060554117715e-16 -1.0 -2.4995305295823783e-15
  outer loop
    vertex 89.96382054561788 214.89575755330927 0.9999999999999999
    vertex 82.46382054561788 214.89575755330935 5.000000000000001
    vertex 76.96382054561786 214.89575755330927 0.9999999999999999
  endloop
endfacet
facet normal 3.693060554117715e-16 -1.0 -2.4995305295823783e-15
  outer loop
    vertex 82.46382054561788 214.89575755330935 5.000000000000001
    vertex 89.96382054561788 214.89575755330927 0.9999999999999999
    vertex 89.96382054561788 214.89575755330927 14.0
  endloop
endfacet
facet normal 3.693060554117715e-16 -1.0 -2.4995305295823783e-15
  outer loop
    vertex 82.46382054561788 214.89575755330935 5.000000000000001
    vertex 89.96382054561788 214.89575755330927 14.0
    vertex 82.46382054561788 214.89575755330927 14.0
  endloop
endfacet
facet normal 3.693060554117715e-16 -1.0 -2.4995305295823783e-15
  outer loop
    vertex 76.96382054561786 214.89575755330927 0.9999999999999999
    vertex 78.96382054561786 214.89575755330935 5.000000000000001
    vertex 76.96382054561786 214.89575755330927 14.0
  endloop
endfacet
facet normal 3.693060554117715e-16 -1.0 -2.4995305295823783e-15
  outer loop
    vertex 78.96382054561786 214.89575755330935 5.000000000000001
    vertex 76.96382054561786 214.89575755330927 0.9999999999999999
    vertex 82.46382054561788 214.89575755330935 5.000000000000001
  endloop
endfacet
facet normal 3.693060554117715e-16 -1.0 -2.4995305295823783e-15
  outer loop
    vertex 76.96382054561786 214.89575755330927 14.0
    vertex 78.96382054561786 214.89575755330935 5.000000000000001
    vertex 78.96382054561786 214.89575755330927 14.0
  endloop
endfacet
facet normal 1.0 -0.0 -0.0
  outer loop
    vertex 78.96382054561786 214.89575755330935 5.000000000000001
    vertex 78.96382054561786 216.89575755330927 14.0
    vertex 78.96382054561786 214.89575755330927 14.0
  endloop
endfacet
facet normal 1.0 -0.0 -0.0
  outer loop
    vertex 78.96382054561786 216.89575755330927 14.0
    vertex 78.96382054561786 214.89575755330935 5.000000000000001
    vertex 78.96382054561786 216.89575755330927 5.000000000000001
  endloop
endfacet
facet normal -6.42196710028875e-05 -0.0006261570492509676 0.9999998019015722
  outer loop
    vertex 76.96569530975552 210.89575883649428 0.9966605764115848
    vertex 89.96382054561788 214.89575755330927 0.9999999999999999
    vertex 76.96382054561786 214.89575755330927 0.9999999999999999
  endloop
endfacet
facet normal -6.42196710028875e-05 -0.0006261570492509676 0.9999998019015722
  outer loop
    vertex 89.96382054561788 214.89575755330927 0.9999999999999999
    vertex 76.96569530975552 210.89575883649428 0.9966605764115848
    vertex 89.96382054561788 210.89575883649428 0.9983302882057924
  endloop
endfacet
facet normal -2.2245838891927777e-05 0.0003614571617782982 0.9999999344269194
  outer loop
    vertex 89.96382054561788 241.89575755330932 1.181714
    vertex 76.96488514805255 245.89617654451118 1.1799788350002463
    vertex 76.96382054561786 241.89575755330932 1.181714
  endloop
endfacet
facet normal -2.2245838891927777e-05 0.0003614571617782982 0.9999999344269194
  outer loop
    vertex 76.96488514805255 245.89617654451118 1.1799788350002463
    vertex 89.96382054561788 241.89575755330932 1.181714
    vertex 89.96382054561788 245.8961966388634 1.1805572195881144
  endloop
endfacet
facet normal 3.2832521716881726e-05 0.00011374924725155088 0.9999999929915673
  outer loop
    vertex 78.96382054561786 239.89575755330932 14.0
    vertex 68.96382054561788 245.8957575533093 14.0
    vertex 68.96382054561788 239.89575755330932 14.0
  endloop
endfacet
facet normal 3.2832521716881726e-05 0.00011374924725155088 0.9999999929915673
  outer loop
    vertex 68.96382054561788 245.8957575533093 14.0
    vertex 78.96382054561786 239.89575755330932 14.0
    vertex 76.96382054561786 241.89575755330932 14.0
  endloop
endfacet
facet normal 3.2832521716881726e-05 0.00011374924725155088 0.9999999929915673
  outer loop
    vertex 68.96382054561788 245.8957575533093 14.0
    vertex 76.96382054561786 241.89575755330932 14.0
    vertex 76.96382017865051 245.89362790288635 13.998844116422287
  endloop
endfacet
facet normal 3.2832521716881726e-05 0.00011374924725155088 0.9999999929915673
  outer loop
    vertex 76.96382054561786 241.89575755330932 14.0
    vertex 78.96382054561786 239.89575755330932 14.0
    vertex 78.96382054561786 241.89575755330932 14.0
  endloop
endfacet
facet normal 1.7071435539525872e-05 0.9999999933069446 0.00011443197609101585
  outer loop
    vertex 68.96382054561788 245.8957575533093 14.0
    vertex 76.96488514805255 245.89617654451118 1.1799788350002463
    vertex 68.96499359395965 245.89619662524058 -0.9999999477057812
  endloop
endfacet
facet normal 1.7071435539525872e-05 0.9999999933069446 0.00011443197609101585
  outer loop
    vertex 76.96488514805255 245.89617654451118 1.1799788350002463
    vertex 68.96382054561788 245.8957575533093 14.0
    vertex 76.96382017865051 245.89362790288635 13.998844116422287
  endloop
endfacet
facet normal 1.7071435539525872e-05 0.9999999933069446 0.00011443197609101585
  outer loop
    vertex 68.96499359395965 245.89619662524058 -0.9999999477057812
    vertex 89.96382054561788 245.8961966388634 1.1805572195881144
    vertex 89.96382054561788 245.8961966388634 -1.0006523700551142
  endloop
endfacet
facet normal 1.7071435539525872e-05 0.9999999933069446 0.00011443197609101585
  outer loop
    vertex 89.96382054561788 245.8961966388634 1.1805572195881144
    vertex 68.96499359395965 245.89619662524058 -0.9999999477057812
    vertex 76.96488514805255 245.89617654451118 1.1799788350002463
  endloop
endfacet
facet normal -2.2245838891927777e-05 0.00036145716177829815 0.9999999344269194
  outer loop
    vertex 89.96382054561788 241.89575755330932 1.181714
    vertex 76.96488514805255 245.89617654451118 1.1799788350002463
    vertex 76.96382054561786 241.89575755330932 1.181714
  endloop
endfacet
facet normal -2.2245838891927777e-05 0.00036145716177829815 0.9999999344269194
  outer loop
    vertex 76.96488514805255 245.89617654451118 1.1799788350002463
    vertex 89.96382054561788 241.89575755330932 1.181714
    vertex 89.96382054561788 245.8961966388634 1.1805572195881144
  endloop
endfacet
facet normal 0.9999999902818747 -0.0001330852861269674 4.152778950488025e-05
  outer loop
    vertex 76.96488514805255 245.89617654451118 1.1799788350002463
    vertex 76.96382054561786 241.89575755330932 14.0
    vertex 76.96382054561786 241.89575755330932 1.181714
  endloop
endfacet
facet normal 0.9999999902818747 -0.0001330852861269674 4.152778950488025e-05
  outer loop
    vertex 76.96382054561786 241.89575755330932 14.0
    vertex 76.96488514805255 245.89617654451118 1.1799788350002463
    vertex 76.96382017865051 245.89362790288635 13.998844116422287
  endloop
endfacet
facet normal -6.306250272436112e-05 -0.0006004889851318473 0.9999998177180333
  outer loop
    vertex 76.96569530977335 210.89575883649428 13.996569439262114
    vertex 76.96382054561786 214.89575755330927 14.0
    vertex 68.96579763913302 210.89575891258065 13.996478302176175
  endloop
endfacet
facet normal -6.306250272436112e-05 -0.0006004889851318473 0.9999998177180333
  outer loop
    vertex 68.96579763913302 210.89575891258065 13.996478302176175
    vertex 78.96382054561786 216.89575755330927 14.0
    vertex 68.96382054561788 216.89575755330927 13.999999999999995
  endloop
endfacet
facet normal -6.306250272436112e-05 -0.0006004889851318473 0.9999998177180333
  outer loop
    vertex 78.96382054561786 216.89575755330927 14.0
    vertex 68.96579763913302 210.89575891258065 13.996478302176175
    vertex 76.96382054561786 214.89575755330927 14.0
  endloop
endfacet
facet normal -6.306250272436112e-05 -0.0006004889851318473 0.9999998177180333
  outer loop
    vertex 78.96382054561786 216.89575755330927 14.0
    vertex 76.96382054561786 214.89575755330927 14.0
    vertex 78.96382054561786 214.89575755330927 14.0
  endloop
endfacet
facet normal -6.306250272436112e-05 -0.0006004889851318474 0.9999998177180333
  outer loop
    vertex 76.96569530977335 210.89575883649428 13.996569439262114
    vertex 76.96382054561786 214.89575755330927 14.0
    vertex 68.96579763913302 210.89575891258065 13.996478302176175
  endloop
endfacet
facet normal -6.306250272436112e-05 -0.0006004889851318474 0.9999998177180333
  outer loop
    vertex 68.96579763913302 210.89575891258065 13.996478302176175
    vertex 78.96382054561786 216.89575755330927 14.0
    vertex 68.96382054561788 216.89575755330927 13.999999999999995
  endloop
endfacet
facet normal -6.306250272436112e-05 -0.0006004889851318474 0.9999998177180333
  outer loop
    vertex 78.96382054561786 216.89575755330927 14.0
    vertex 68.96579763913302 210.89575891258065 13.996478302176175
    vertex 76.96382054561786 214.89575755330927 14.0
  endloop
endfacet
facet normal -6.306250272436112e-05 -0.0006004889851318474 0.9999998177180333
  outer loop
    vertex 78.96382054561786 216.89575755330927 14.0
    vertex 76.96382054561786 214.89575755330927 14.0
    vertex 78.96382054561786 214.89575755330927 14.0
  endloop
endfacet
facet normal -0.9999999991054187 -2.8846592649091807e-05 -3.093601487651797e-05
  outer loop
    vertex 68.96579763913302 210.89575891258065 13.996478302176175
    vertex 68.96463077882325 212.28944097759708 7.97072510312259
    vertex 68.96590801413251 210.89575891581237 -1.0038719168071446
  endloop
endfacet
facet normal -0.9999999991054187 -2.8846592649091807e-05 -3.093601487651797e-05
  outer loop
    vertex 68.96463077882325 212.28944097759708 7.97072510312259
    vertex 68.96579763913302 210.89575891258065 13.996478302176175
    vertex 68.9646121614875 212.46926173736907 8.404850816739765
  endloop
endfacet
facet normal -0.9999999991054187 -2.8846592649091807e-05 -3.093601487651797e-05
  outer loop
    vertex 68.9646121614875 212.46926173736907 8.404850816739765
    vertex 68.96579763913302 210.89575891258065 13.996478302176175
    vertex 68.96459237711306 212.75531525603716 8.777643017947607
  endloop
endfacet
facet normal -0.9999999991054187 -2.8846592649091807e-05 -3.093601487651797e-05
  outer loop
    vertex 68.96459237711306 212.75531525603716 8.777643017947607
    vertex 68.96579763913302 210.89575891258065 13.996478302176175
    vertex 68.96382054561788 216.89575755330927 13.999999999999995
  endloop
endfacet
facet normal -0.9999999991054187 -2.8846592649091807e-05 -3.093601487651797e-05
  outer loop
    vertex 68.96590801413251 210.89575891581237 -1.0038719168071446
    vertex 68.96463077882325 212.28944097759708 7.97072510312259
    vertex 68.96464696037967 212.22810746433177 7.504850827052425
  endloop
endfacet
facet normal -0.9999999991054187 -2.8846592649091807e-05 -3.093601487651797e-05
  outer loop
    vertex 68.96459237711306 212.75531525603716 8.777643017947607
    vertex 68.96382054561788 216.89575755330927 13.999999999999995
    vertex 68.96457277397239 213.12810745902993 9.063696534302037
  endloop
endfacet
facet normal -0.9999999991054187 -2.8846592649091807e-05 -3.093601487651797e-05
  outer loop
    vertex 68.96457277397239 213.12810745902993 9.063696534302037
    vertex 68.96382054561788 216.89575755330927 13.999999999999995
    vertex 68.9645546879871 213.5622331737816 9.243517291389292
  endloop
endfacet
facet normal -0.9999999991054187 -2.8846592649091807e-05 -3.093601487651797e-05
  outer loop
    vertex 68.9645546879871 213.5622331737816 9.243517291389292
    vertex 68.96382054561788 216.89575755330927 13.999999999999995
    vertex 68.96468655973301 214.02810745450506 9.304850806335756
  endloop
endfacet
facet normal -0.9999999991054187 -2.8846592649091807e-05 -3.093601487651797e-05
  outer loop
    vertex 68.96468655973301 214.02810745450506 9.304850806335756
    vertex 68.96382054561788 216.89575755330927 13.999999999999995
    vertex 68.96452781021623 214.4939817264126 9.24351728810451
  endloop
endfacet
facet normal -0.9999999991054187 -2.8846592649091807e-05 -3.093601487651797e-05
  outer loop
    vertex 68.96452781021623 214.4939817264126 9.24351728810451
    vertex 68.96382054561788 216.89575755330927 13.999999999999995
    vertex 68.96452085010631 214.92810744021736 9.063696527956326
  endloop
endfacet
facet normal -0.9999999991054187 -2.8846592649091807e-05 -3.093601487651797e-05
  outer loop
    vertex 68.96452085010631 214.92810744021736 9.063696527956326
    vertex 68.96382054561788 216.89575755330927 13.999999999999995
    vertex 68.96451894567744 215.30089964170372 8.777643008973415
  endloop
endfacet
facet normal -0.9999999991054187 -2.8846592649091807e-05 -3.093601487651797e-05
  outer loop
    vertex 68.96451894567744 215.30089964170372 8.777643008973415
    vertex 68.96382054561788 216.89575755330927 13.999999999999995
    vertex 68.96452222671331 215.58695315840873 8.404850805748671
  endloop
endfacet
facet normal -0.9999999991054187 -2.8846592649091807e-05 -3.093601487651797e-05
  outer loop
    vertex 68.96452222671331 215.58695315840873 8.404850805748671
    vertex 68.96382054561788 216.89575755330927 13.999999999999995
    vertex 68.96453046961675 215.76677391589465 7.970725090863617
  endloop
endfacet
facet normal -0.9999999991054187 -2.8846592649091807e-05 -3.093601487651797e-05
  outer loop
    vertex 68.96453046961675 215.76677391589465 7.970725090863617
    vertex 68.96382054561788 216.89575755330927 13.999999999999995
    vertex 68.9645431126475 215.82810742670662 7.504850814361002
  endloop
endfacet
facet normal -0.9999999991054187 -2.8846592649091807e-05 -3.093601487651797e-05
  outer loop
    vertex 68.96382054561788 239.89575755330932 14.0
    vertex 68.96422194022125 240.89610971788613 7.9959311121690275
    vertex 68.96382054561788 239.89575755330932 0.9999999999999999
  endloop
endfacet
facet normal -0.9999999991054187 -2.8846592649091807e-05 -3.093601487651797e-05
  outer loop
    vertex 68.96422194022125 240.89610971788613 7.9959311121690275
    vertex 68.96382054561788 239.89575755330932 14.0
    vertex 68.96420332288537 241.07593048062202 8.430056826681684
  endloop
endfacet
facet normal -0.9999999991054187 -2.8846592649091807e-05 -3.093601487651797e-05
  outer loop
    vertex 68.96420332288537 241.07593048062202 8.430056826681684
    vertex 68.96382054561788 239.89575755330932 14.0
    vertex 68.96418353851085 241.3619840023847 8.802849027987394
  endloop
endfacet
facet normal -0.9999999991054187 -2.8846592649091807e-05 -3.093601487651797e-05
  outer loop
    vertex 68.96418353851085 241.3619840023847 8.802849027987394
    vertex 68.96382054561788 239.89575755330932 14.0
    vertex 68.96382054561788 245.8957575533093 14.0
  endloop
endfacet
facet normal -0.9999999991054187 -2.8846592649091807e-05 -3.093601487651797e-05
  outer loop
    vertex 68.96382054561788 239.89575755330932 0.9999999999999999
    vertex 68.96422194022125 240.89610971788613 7.9959311121690275
    vertex 68.96423812177778 240.83477620198977 7.530056834466798
  endloop
endfacet
facet normal -0.9999999991054187 -2.8846592649091807e-05 -3.093601487651797e-05
  outer loop
    vertex 68.96418353851085 241.3619840023847 8.802849027987394
    vertex 68.96382054561788 245.8957575533093 14.0
    vertex 68.96416393537011 241.73477620839196 9.088902543635415
  endloop
endfacet
facet normal -0.9999999991054187 -2.8846592649091807e-05 -3.093601487651797e-05
  outer loop
    vertex 68.96416393537011 241.73477620839196 9.088902543635415
    vertex 68.96382054561788 245.8957575533093 14.0
    vertex 68.96414584938479 242.16890192587263 9.268723299260119
  endloop
endfacet
facet normal -0.9999999991054187 -2.8846592649091807e-05 -3.093601487651797e-05
  outer loop
    vertex 68.96414584938479 242.16890192587263 9.268723299260119
    vertex 68.96382054561788 245.8957575533093 14.0
    vertex 68.96405034347325 242.6347762022944 9.330056805053404
  endloop
endfacet
facet normal -0.9999999991054187 -2.8846592649091807e-05 -3.093601487651797e-05
  outer loop
    vertex 68.96405034347325 242.6347762022944 9.330056805053404
    vertex 68.96382054561788 245.8957575533093 14.0
    vertex 68.96411897161396 243.1006504823931 9.268723291225237
  endloop
endfacet
facet normal -0.9999999991054187 -2.8846592649091807e-05 -3.093601487651797e-05
  outer loop
    vertex 68.96411897161396 243.1006504823931 9.268723291225237
    vertex 68.96382054561788 245.8957575533093 14.0
    vertex 68.9641120115041 243.53477619709332 9.088902528113216
  endloop
endfacet
facet normal -0.9999999991054187 -2.8846592649091807e-05 -3.093601487651797e-05
  outer loop
    vertex 68.9641120115041 243.53477619709332 9.088902528113216
    vertex 68.96382054561788 245.8957575533093 14.0
    vertex 68.96411010707533 243.9075683986776 8.802849006035691
  endloop
endfacet
facet normal -0.9999999991054187 -2.8846592649091807e-05 -3.093601487651797e-05
  outer loop
    vertex 68.96411010707533 243.9075683986776 8.802849006035691
    vertex 68.96382054561788 245.8957575533093 14.0
    vertex 68.96411338811131 244.19362191467613 8.430056799796448
  endloop
endfacet
facet normal -0.9999999991054187 -2.8846592649091807e-05 -3.093601487651797e-05
  outer loop
    vertex 68.96411338811131 244.19362191467613 8.430056799796448
    vertex 68.96382054561788 245.8957575533093 14.0
    vertex 68.96412163101488 244.3734426706995 7.995931082182444
  endloop
endfacet
facet normal -0.9999999991054187 -2.8846592649091807e-05 -3.093601487651797e-05
  outer loop
    vertex 68.96412163101488 244.3734426706995 7.995931082182444
    vertex 68.96382054561788 245.8957575533093 14.0
    vertex 68.96413427404578 244.4347761793925 7.530056803422402
  endloop
endfacet
facet normal -0.9999999991054187 -2.8846592649091807e-05 -3.093601487651797e-05
  outer loop
    vertex 68.96590801413251 210.89575891581237 -1.0038719168071446
    vertex 68.96382054561788 216.89575755330927 0.9999999999999999
    vertex 68.96499359395965 245.89619662524058 -0.9999999477057812
  endloop
endfacet
facet normal -0.9999999991054187 -2.8846592649091807e-05 -3.093601487651797e-05
  outer loop
    vertex 68.96382054561788 216.89575755330927 0.9999999999999999
    vertex 68.96590801413251 210.89575891581237 -1.0038719168071446
    vertex 68.96467112734973 212.75531524933467 6.232058632440011
  endloop
endfacet
facet normal -0.9999999991054187 -2.8846592649091807e-05 -3.093601487651797e-05
  outer loop
    vertex 68.96467112734973 212.75531524933467 6.232058632440011
    vertex 68.96590801413251 210.89575891581237 -1.0038719168071446
    vertex 68.96466784631386 212.46926173262966 6.604850835664755
  endloop
endfacet
facet normal -0.9999999991054187 -2.8846592649091807e-05 -3.093601487651797e-05
  outer loop
    vertex 68.96466784631386 212.46926173262966 6.604850835664755
    vertex 68.96590801413251 210.89575891581237 -1.0038719168071446
    vertex 68.96465960341042 212.28944097514375 7.03897655054981
  endloop
endfacet
facet normal -0.9999999991054187 -2.8846592649091807e-05 -3.093601487651797e-05
  outer loop
    vertex 68.96465960341042 212.28944097514375 7.03897655054981
    vertex 68.96590801413251 210.89575891581237 -1.0038719168071446
    vertex 68.96464696037967 212.22810746433177 7.504850827052425
  endloop
endfacet
facet normal -0.9999999991054187 -2.8846592649091807e-05 -3.093601487651797e-05
  outer loop
    vertex 68.96382054561788 216.89575755330927 0.9999999999999999
    vertex 68.96467112734973 212.75531524933467 6.232058632440011
    vertex 68.96466922292086 213.12810745082103 5.9460051134571
  endloop
endfacet
facet normal -0.9999999991054187 -2.8846592649091807e-05 -3.093601487651797e-05
  outer loop
    vertex 68.96382054561788 216.89575755330927 0.9999999999999999
    vertex 68.96466922292086 213.12810745082103 5.9460051134571
    vertex 68.96466226281095 213.56223316462578 5.766184353308916
  endloop
endfacet
facet normal -0.9999999991054187 -2.8846592649091807e-05 -3.093601487651797e-05
  outer loop
    vertex 68.96382054561788 216.89575755330927 0.9999999999999999
    vertex 68.96466226281095 213.56223316462578 5.766184353308916
    vertex 68.96450351329416 214.02810743653333 5.704850835077672
  endloop
endfacet
facet normal -0.9999999991054187 -2.8846592649091807e-05 -3.093601487651797e-05
  outer loop
    vertex 68.96382054561788 216.89575755330927 0.9999999999999999
    vertex 68.96450351329416 214.02810743653333 5.704850835077672
    vertex 68.96463538504007 214.4939817172568 5.766184350024135
  endloop
endfacet
facet normal -0.9999999991054187 -2.8846592649091807e-05 -3.093601487651797e-05
  outer loop
    vertex 68.96382054561788 216.89575755330927 0.9999999999999999
    vertex 68.96463538504007 214.4939817172568 5.766184350024135
    vertex 68.96461729905478 214.92810743200846 5.946005107111389
  endloop
endfacet
facet normal -0.9999999991054187 -2.8846592649091807e-05 -3.093601487651797e-05
  outer loop
    vertex 68.96382054561788 216.89575755330927 0.9999999999999999
    vertex 68.96461729905478 214.92810743200846 5.946005107111389
    vertex 68.96459769591411 215.30089963500123 6.23205862346582
  endloop
endfacet
facet normal -0.9999999991054187 -2.8846592649091807e-05 -3.093601487651797e-05
  outer loop
    vertex 68.96382054561788 216.89575755330927 0.9999999999999999
    vertex 68.96459769591411 215.30089963500123 6.23205862346582
    vertex 68.96457791153968 215.58695315366933 6.604850824673659
  endloop
endfacet
facet normal -0.9999999991054187 -2.8846592649091807e-05 -3.093601487651797e-05
  outer loop
    vertex 68.96382054561788 216.89575755330927 0.9999999999999999
    vertex 68.96457791153968 215.58695315366933 6.604850824673659
    vertex 68.96455929420392 215.7667739134413 7.038976538290837
  endloop
endfacet
facet normal -0.9999999991054187 -2.8846592649091807e-05 -3.093601487651797e-05
  outer loop
    vertex 68.96382054561788 216.89575755330927 0.9999999999999999
    vertex 68.96455929420392 215.7667739134413 7.038976538290837
    vertex 68.9645431126475 215.82810742670662 7.504850814361002
  endloop
endfacet
facet normal -0.9999999991054187 -2.8846592649091807e-05 -3.093601487651797e-05
  outer loop
    vertex 68.96382054561788 216.89575755330927 0.9999999999999999
    vertex 68.9645431126475 215.82810742670662 7.504850814361002
    vertex 68.96382054561788 216.89575755330927 13.999999999999995
  endloop
endfacet
facet normal -0.9999999991054187 -2.8846592649091807e-05 -3.093601487651797e-05
  outer loop
    vertex 68.96499359395965 245.89619662524058 -0.9999999477057812
    vertex 68.96382054561788 216.89575755330927 0.9999999999999999
    vertex 68.96382054561788 239.89575755330932 0.9999999999999999
  endloop
endfacet
facet normal -0.9999999991054187 -2.8846592649091807e-05 -3.093601487651797e-05
  outer loop
    vertex 68.96499359395965 245.89619662524058 -0.9999999477057812
    vertex 68.96382054561788 239.89575755330932 0.9999999999999999
    vertex 68.96425900771224 241.07593046670613 6.630056838092752
  endloop
endfacet
facet normal -0.9999999991054187 -2.8846592649091807e-05 -3.093601487651797e-05
  outer loop
    vertex 68.96425900771224 241.07593046670613 6.630056838092752
    vertex 68.96382054561788 239.89575755330932 0.9999999999999999
    vertex 68.96425076480868 240.8961097106828 7.064182555706757
  endloop
endfacet
facet normal -0.9999999991054187 -2.8846592649091807e-05 -3.093601487651797e-05
  outer loop
    vertex 68.96425076480868 240.8961097106828 7.064182555706757
    vertex 68.96382054561788 239.89575755330932 0.9999999999999999
    vertex 68.96423812177778 240.83477620198977 7.530056834466798
  endloop
endfacet
facet normal -0.9999999991054187 -2.8846592649091807e-05 -3.093601487651797e-05
  outer loop
    vertex 68.96499359395965 245.89619662524058 -0.9999999477057812
    vertex 68.96425900771224 241.07593046670613 6.630056838092752
    vertex 68.96426228874823 241.36198398270466 6.257264631853508
  endloop
endfacet
facet normal -0.9999999991054187 -2.8846592649091807e-05 -3.093601487651797e-05
  outer loop
    vertex 68.96499359395965 245.89619662524058 -0.9999999477057812
    vertex 68.96426228874823 241.36198398270466 6.257264631853508
    vertex 68.96426038431946 241.73477618428893 5.971211109775983
  endloop
endfacet
facet normal -0.9999999991054187 -2.8846592649091807e-05 -3.093601487651797e-05
  outer loop
    vertex 68.96499359395965 245.89619662524058 -0.9999999477057812
    vertex 68.96426038431946 241.73477618428893 5.971211109775983
    vertex 68.9642534242096 242.1689018989892 5.791390346663962
  endloop
endfacet
facet normal -0.9999999991054187 -2.8846592649091807e-05 -3.093601487651797e-05
  outer loop
    vertex 68.96499359395965 245.89619662524058 -0.9999999477057812
    vertex 68.9642534242096 242.1689018989892 5.791390346663962
    vertex 68.96432205235031 242.63477617908785 5.730056832835795
  endloop
endfacet
facet normal -0.9999999991054187 -2.8846592649091807e-05 -3.093601487651797e-05
  outer loop
    vertex 68.96499359395965 245.89619662524058 -0.9999999477057812
    vertex 68.96432205235031 242.63477617908785 5.730056832835795
    vertex 68.96422654643877 243.10065045550965 5.791390338629081
  endloop
endfacet
facet normal -0.9999999991054187 -2.8846592649091807e-05 -3.093601487651797e-05
  outer loop
    vertex 68.96499359395965 245.89619662524058 -0.9999999477057812
    vertex 68.96422654643877 243.10065045550965 5.791390338629081
    vertex 68.96420846045345 243.5347761729903 5.971211094253785
  endloop
endfacet
facet normal -0.9999999991054187 -2.8846592649091807e-05 -3.093601487651797e-05
  outer loop
    vertex 68.96499359395965 245.89619662524058 -0.9999999477057812
    vertex 68.96420846045345 243.5347761729903 5.971211094253785
    vertex 68.9641888573127 243.90756837899752 6.257264609901806
  endloop
endfacet
facet normal -0.9999999991054187 -2.8846592649091807e-05 -3.093601487651797e-05
  outer loop
    vertex 68.96499359395965 245.89619662524058 -0.9999999477057812
    vertex 68.9641888573127 243.90756837899752 6.257264609901806
    vertex 68.96416907293819 244.19362190076023 6.630056811207514
  endloop
endfacet
facet normal -0.9999999991054187 -2.8846592649091807e-05 -3.093601487651797e-05
  outer loop
    vertex 68.96499359395965 245.89619662524058 -0.9999999477057812
    vertex 68.96416907293819 244.19362190076023 6.630056811207514
    vertex 68.96415045560231 244.37344266349612 7.06418252572017
  endloop
endfacet
facet normal -0.9999999991054187 -2.8846592649091807e-05 -3.093601487651797e-05
  outer loop
    vertex 68.96499359395965 245.89619662524058 -0.9999999477057812
    vertex 68.96415045560231 244.37344266349612 7.06418252572017
    vertex 68.96413427404578 244.4347761793925 7.530056803422402
  endloop
endfacet
facet normal -0.9999999991054187 -2.8846592649091807e-05 -3.093601487651797e-05
  outer loop
    vertex 68.96499359395965 245.89619662524058 -0.9999999477057812
    vertex 68.96413427404578 244.4347761793925 7.530056803422402
    vertex 68.96382054561788 245.8957575533093 14.0
  endloop
endfacet
facet normal 0.9999998901643038 0.0004686911355178781 -6.859025436560267e-13
  outer loop
    vertex 76.96382054561786 214.89575755330927 0.9999999999999999
    vertex 76.96569530977335 210.89575883649428 13.996569439262114
    vertex 76.96569530975552 210.89575883649428 0.9966605764115848
  endloop
endfacet
facet normal 0.9999998901643038 0.0004686911355178781 -6.859025436560267e-13
  outer loop
    vertex 76.96569530977335 210.89575883649428 13.996569439262114
    vertex 76.96382054561786 214.89575755330927 0.9999999999999999
    vertex 76.96382054561786 214.89575755330927 14.0
  endloop
endfacet
facet normal 2.8518250254163075e-05 7.487608562241657e-05 -0.9999999967901407
  outer loop
    vertex 89.96382054561788 245.8961966388634 -1.0006523700551142
    vertex 68.96590801413251 210.89575891581237 -1.0038719168071446
    vertex 68.96499359395965 245.89619662524058 -0.9999999477057812
  endloop
endfacet
facet normal 2.8518250254163075e-05 7.487608562241657e-05 -0.9999999967901407
  outer loop
    vertex 68.96590801413251 210.89575891581237 -1.0038719168071446
    vertex 89.96382054561788 245.8961966388634 -1.0006523700551142
    vertex 89.96382054561788 210.89575891581237 -1.0020217664359248
  endloop
endfacet
facet normal -6.451095267221129e-10 -1.0 -5.181220627685681e-10
  outer loop
    vertex 89.96382054561788 210.89575883649428 0.9983302882057924
    vertex 76.96569530975552 210.89575883649428 0.9966605764115848
    vertex 89.96382054561788 210.89575891581237 -1.0020217664359248
  endloop
endfacet
facet normal -6.451095267221129e-10 -1.0 -5.181220627685681e-10
  outer loop
    vertex 68.96590801413251 210.89575891581237 -1.0038719168071446
    vertex 76.96569530975552 210.89575883649428 0.9966605764115848
    vertex 68.96579763913302 210.89575891258065 13.996478302176175
  endloop
endfacet
facet normal -6.451095267221129e-10 -1.0 -5.181220627685681e-10
  outer loop
    vertex 76.96569530975552 210.89575883649428 0.9966605764115848
    vertex 68.96590801413251 210.89575891581237 -1.0038719168071446
    vertex 89.96382054561788 210.89575891581237 -1.0020217664359248
  endloop
endfacet
facet normal -6.451095267221129e-10 -1.0 -5.181220627685681e-10
  outer loop
    vertex 68.96579763913302 210.89575891258065 13.996478302176175
    vertex 76.96569530975552 210.89575883649428 0.9966605764115848
    vertex 76.96569530977335 210.89575883649428 13.996569439262114
  endloop
endfacet
facet normal -6.42196710028875e-05 -0.0006261570492509676 0.9999998019015722
  outer loop
    vertex 76.96569530975552 210.89575883649428 0.9966605764115848
    vertex 89.96382054561788 214.89575755330927 0.9999999999999999
    vertex 76.96382054561786 214.89575755330927 0.9999999999999999
  endloop
endfacet
facet normal -6.42196710028875e-05 -0.0006261570492509676 0.9999998019015722
  outer loop
    vertex 89.96382054561788 214.89575755330927 0.9999999999999999
    vertex 76.96569530975552 210.89575883649428 0.9966605764115848
    vertex 89.96382054561788 210.89575883649428 0.9983302882057924
  endloop
endfacet
facet normal -6.42196710028875e-05 -0.0006261570492509676 0.9999998019015722
  outer loop
    vertex 76.96569530975552 210.89575883649428 0.9966605764115848
    vertex 89.96382054561788 214.89575755330927 0.9999999999999999
    vertex 76.96382054561786 214.89575755330927 0.9999999999999999
  endloop
endfacet
facet normal -6.42196710028875e-05 -0.0006261570492509676 0.9999998019015722
  outer loop
    vertex 89.96382054561788 214.89575755330927 0.9999999999999999
    vertex 76.96569530975552 210.89575883649428 0.9966605764115848
    vertex 89.96382054561788 210.89575883649428 0.9983302882057924
  endloop
endfacet
facet normal 1.0 -0.0 -0.0
  outer loop
    vertex 89.96382054561788 210.89575891581237 -1.0020217664359248
    vertex 89.96382054561788 214.89575755330927 0.9999999999999999
    vertex 89.96382054561788 210.89575883649428 0.9983302882057924
  endloop
endfacet
facet normal 1.0 -0.0 -0.0
  outer loop
    vertex 89.96382054561788 214.89575755330927 0.9999999999999999
    vertex 89.96382054561788 210.89575891581237 -1.0020217664359248
    vertex 89.96382054561788 245.8961966388634 -1.0006523700551142
  endloop
endfacet
facet normal 1.0 -0.0 -0.0
  outer loop
    vertex 89.96382054561788 214.89575755330927 0.9999999999999999
    vertex 89.96382054561788 245.8961966388634 -1.0006523700551142
    vertex 89.96382054561788 214.89575755330927 14.0
  endloop
endfacet
facet normal 1.0 -0.0 -0.0
  outer loop
    vertex 89.96382054561788 214.89575755330927 14.0
    vertex 89.96382054561788 245.8961966388634 -1.0006523700551142
    vertex 89.96382054561788 241.89575755330932 1.181714
  endloop
endfacet
facet normal 1.0 -0.0 -0.0
  outer loop
    vertex 89.96382054561788 241.89575755330932 1.181714
    vertex 89.96382054561788 245.8961966388634 -1.0006523700551142
    vertex 89.96382054561788 245.8961966388634 1.1805572195881144
  endloop
endfacet
facet normal 1.0 -0.0 -0.0
  outer loop
    vertex 89.96382054561788 241.89575755330932 14.0
    vertex 89.96382054561788 214.89575755330927 14.0
    vertex 89.96382054561788 241.89575755330932 1.181714
  endloop
endfacet
facet normal 3.2832521716881726e-05 0.00011374924725155088 0.9999999929915673
  outer loop
    vertex 78.96382054561786 239.89575755330932 14.0
    vertex 68.96382054561788 245.8957575533093 14.0
    vertex 68.96382054561788 239.89575755330932 14.0
  endloop
endfacet
facet normal 3.2832521716881726e-05 0.00011374924725155088 0.9999999929915673
  outer loop
    vertex 68.96382054561788 245.8957575533093 14.0
    vertex 78.96382054561786 239.89575755330932 14.0
    vertex 76.96382054561786 241.89575755330932 14.0
  endloop
endfacet
facet normal 3.2832521716881726e-05 0.00011374924725155088 0.9999999929915673
  outer loop
    vertex 68.96382054561788 245.8957575533093 14.0
    vertex 76.96382054561786 241.89575755330932 14.0
    vertex 76.96382017865051 245.89362790288635 13.998844116422287
  endloop
endfacet
facet normal 3.2832521716881726e-05 0.00011374924725155088 0.9999999929915673
  outer loop
    vertex 76.96382054561786 241.89575755330932 14.0
    vertex 78.96382054561786 239.89575755330932 14.0
    vertex 78.96382054561786 241.89575755330932 14.0
  endloop
endfacet
facet normal -3.4265723776713264e-05 -0.13052618595449733 0.9914448616065505
  outer loop
    vertex 68.96432205235031 242.63477617908785 5.730056832835795
    vertex 72.16422654275308 243.10074276460628 5.791513087835804
    vertex 68.96422654643877 243.10065045550965 5.791390338629081
  endloop
endfacet
facet normal -3.4265723776713264e-05 -0.13052618595449733 0.9914448616065505
  outer loop
    vertex 72.16422654275308 243.10074276460628 5.791513087835804
    vertex 68.96432205235031 242.63477617908785 5.730056832835795
    vertex 72.16432204866463 242.6348684881845 5.730179582042517
  endloop
endfacet
facet normal -0.9999999994341946 -2.884659258453043e-05 -1.7305640086740435e-05
  outer loop
    vertex 72.16463077701268 212.28953328669337 7.970780481170868
    vertex 72.16465960159985 212.28953328424004 7.039031928598087
    vertex 72.1646469585691 212.22819977342806 7.504906205100702
  endloop
endfacet
facet normal -0.9999999994341946 -2.884659258453043e-05 -1.7305640086740435e-05
  outer loop
    vertex 72.16465960159985 212.28953328424004 7.039031928598087
    vertex 72.16463077701268 212.28953328669337 7.970780481170868
    vertex 72.16466784450328 212.46935404172595 6.604906213713032
  endloop
endfacet
facet normal -0.9999999994341946 -2.884659258453043e-05 -1.7305640086740435e-05
  outer loop
    vertex 72.16466784450328 212.46935404172595 6.604906213713032
    vertex 72.16463077701268 212.28953328669337 7.970780481170868
    vertex 72.1646121596769 212.46935404646536 8.404906194788044
  endloop
endfacet
facet normal -0.9999999994341946 -2.884659258453043e-05 -1.7305640086740435e-05
  outer loop
    vertex 72.16466784450328 212.46935404172595 6.604906213713032
    vertex 72.1646121596769 212.46935404646536 8.404906194788044
    vertex 72.16467112553916 212.75540755843096 6.232114010488289
  endloop
endfacet
facet normal -0.9999999994341946 -2.884659258453043e-05 -1.7305640086740435e-05
  outer loop
    vertex 72.16467112553916 212.75540755843096 6.232114010488289
    vertex 72.1646121596769 212.46935404646536 8.404906194788044
    vertex 72.16459237530248 212.75540756513345 8.777698395995884
  endloop
endfacet
facet normal -0.9999999994341946 -2.884659258453043e-05 -1.7305640086740435e-05
  outer loop
    vertex 72.16467112553916 212.75540755843096 6.232114010488289
    vertex 72.16459237530248 212.75540756513345 8.777698395995884
    vertex 72.16466922111027 213.12819975991732 5.946060491505378
  endloop
endfacet
facet normal -0.9999999994341946 -2.884659258453043e-05 -1.7305640086740435e-05
  outer loop
    vertex 72.16466922111027 213.12819975991732 5.946060491505378
    vertex 72.16459237530248 212.75540756513345 8.777698395995884
    vertex 72.16457277216182 213.12819976812622 9.063751912350314
  endloop
endfacet
facet normal -0.9999999994341946 -2.884659258453043e-05 -1.7305640086740435e-05
  outer loop
    vertex 72.16466922111027 213.12819975991732 5.946060491505378
    vertex 72.16457277216182 213.12819976812622 9.063751912350314
    vertex 72.16466226100037 213.56232547372207 5.766239731357194
  endloop
endfacet
facet normal -0.9999999994341946 -2.884659258453043e-05 -1.7305640086740435e-05
  outer loop
    vertex 72.16466226100037 213.56232547372207 5.766239731357194
    vertex 72.16457277216182 213.12819976812622 9.063751912350314
    vertex 72.16455468617652 213.5623254828779 9.243572669437569
  endloop
endfacet
facet normal -0.9999999994341946 -2.884659258453043e-05 -1.7305640086740435e-05
  outer loop
    vertex 72.16466226100037 213.56232547372207 5.766239731357194
    vertex 72.16455468617652 213.5623254828779 9.243572669437569
    vertex 72.1645035114836 214.02819974562962 5.704906213125949
  endloop
endfacet
facet normal -0.9999999994341946 -2.884659258453043e-05 -1.7305640086740435e-05
  outer loop
    vertex 72.1645035114836 214.02819974562962 5.704906213125949
    vertex 72.16455468617652 213.5623254828779 9.243572669437569
    vertex 72.16468655792244 214.02819976360135 9.304906184384032
  endloop
endfacet
facet normal -0.9999999994341946 -2.884659258453043e-05 -1.7305640086740435e-05
  outer loop
    vertex 72.1645035114836 214.02819974562962 5.704906213125949
    vertex 72.16468655792244 214.02819976360135 9.304906184384032
    vertex 72.16463538322948 214.49407402635308 5.766239728072412
  endloop
endfacet
facet normal -0.9999999994341946 -2.884659258453043e-05 -1.7305640086740435e-05
  outer loop
    vertex 72.16463538322948 214.49407402635308 5.766239728072412
    vertex 72.16468655792244 214.02819976360135 9.304906184384032
    vertex 72.16452780840565 214.49407403550887 9.243572666152788
  endloop
endfacet
facet normal -0.9999999994341946 -2.884659258453043e-05 -1.7305640086740435e-05
  outer loop
    vertex 72.16463538322948 214.49407402635308 5.766239728072412
    vertex 72.16452780840565 214.49407403550887 9.243572666152788
    vertex 72.16461729724422 214.92819974110475 5.946060485159666
  endloop
endfacet
facet normal -0.9999999994341946 -2.884659258453043e-05 -1.7305640086740435e-05
  outer loop
    vertex 72.16461729724422 214.92819974110475 5.946060485159666
    vertex 72.16452780840565 214.49407403550887 9.243572666152788
    vertex 72.16452084829572 214.92819974931365 9.063751906004605
  endloop
endfacet
facet normal -0.9999999994341946 -2.884659258453043e-05 -1.7305640086740435e-05
  outer loop
    vertex 72.16461729724422 214.92819974110475 5.946060485159666
    vertex 72.16452084829572 214.92819974931365 9.063751906004605
    vertex 72.16459769410353 215.30099194409752 6.232114001514097
  endloop
endfacet
facet normal -0.9999999994341946 -2.884659258453043e-05 -1.7305640086740435e-05
  outer loop
    vertex 72.16459769410353 215.30099194409752 6.232114001514097
    vertex 72.16452084829572 214.92819974931365 9.063751906004605
    vertex 72.16451894386687 215.3009919508 8.777698387021692
  endloop
endfacet
facet normal -0.9999999994341946 -2.884659258453043e-05 -1.7305640086740435e-05
  outer loop
    vertex 72.16459769410353 215.30099194409752 6.232114001514097
    vertex 72.16451894386687 215.3009919508 8.777698387021692
    vertex 72.1645779097291 215.58704546276562 6.604906202721937
  endloop
endfacet
facet normal -0.9999999994341946 -2.884659258453043e-05 -1.7305640086740435e-05
  outer loop
    vertex 72.1645779097291 215.58704546276562 6.604906202721937
    vertex 72.16451894386687 215.3009919508 8.777698387021692
    vertex 72.16452222490275 215.58704546750502 8.404906183796948
  endloop
endfacet
facet normal -0.9999999994341946 -2.884659258453043e-05 -1.7305640086740435e-05
  outer loop
    vertex 72.1645779097291 215.58704546276562 6.604906202721937
    vertex 72.16452222490275 215.58704546750502 8.404906183796948
    vertex 72.16455929239336 215.7668662225376 7.0390319163391135
  endloop
endfacet
facet normal -0.9999999994341946 -2.884659258453043e-05 -1.7305640086740435e-05
  outer loop
    vertex 72.16455929239336 215.7668662225376 7.0390319163391135
    vertex 72.16452222490275 215.58704546750502 8.404906183796948
    vertex 72.16453046780619 215.7668662249909 7.970780468911894
  endloop
endfacet
facet normal -0.9999999994341946 -2.884659258453043e-05 -1.7305640086740435e-05
  outer loop
    vertex 72.16455929239336 215.7668662225376 7.0390319163391135
    vertex 72.16453046780619 215.7668662249909 7.970780468911894
    vertex 72.16454311083695 215.8281997358029 7.50490619240928
  endloop
endfacet
facet normal 1.3392352019016502e-05 0.13052619335088614 -0.991444861134482
  outer loop
    vertex 68.96468655973301 214.02810745450506 9.304850806335756
    vertex 72.16455468617652 213.5623254828779 9.243572669437569
    vertex 68.9645546879871 213.5622331737816 9.243517291389292
  endloop
endfacet
facet normal 1.3392352019016502e-05 0.13052619335088614 -0.991444861134482
  outer loop
    vertex 72.16455468617652 213.5623254828779 9.243572669437569
    vertex 68.96468655973301 214.02810745450506 9.304850806335756
    vertex 72.16468655792244 214.02819976360135 9.304906184384032
  endloop
endfacet
facet normal 2.0922824022852733e-05 -0.13052619935148196 -0.9914448602141688
  outer loop
    vertex 72.16452780840565 214.49407403550887 9.243572666152788
    vertex 68.96468655973301 214.02810745450506 9.304850806335756
    vertex 68.96452781021623 214.4939817264126 9.24351728810451
  endloop
endfacet
facet normal 2.0922824022852733e-05 -0.13052619935148196 -0.9914448602141688
  outer loop
    vertex 68.96468655973301 214.02810745450506 9.304850806335756
    vertex 72.16452780840565 214.49407403550887 9.243572666152788
    vertex 72.16468655792244 214.02819976360135 9.304906184384032
  endloop
endfacet
facet normal 2.7027439800382165e-05 -0.38268343497135787 -0.9238795310364009
  outer loop
    vertex 72.16452084829572 214.92819974931365 9.063751906004605
    vertex 68.96452781021623 214.4939817264126 9.24351728810451
    vertex 68.96452085010631 214.92810744021736 9.063696527956326
  endloop
endfacet
facet normal 2.7027439800382165e-05 -0.38268343497135787 -0.9238795310364009
  outer loop
    vertex 68.96452781021623 214.4939817264126 9.24351728810451
    vertex 72.16452084829572 214.92819974931365 9.063751906004605
    vertex 72.16452780840565 214.49407403550887 9.243572666152788
  endloop
endfacet
facet normal 3.1290180332388806e-05 -0.6087614311207186 -0.7933533380535934
  outer loop
    vertex 72.16451894386687 215.3009919508 8.777698387021692
    vertex 68.96452085010631 214.92810744021736 9.063696527956326
    vertex 68.96451894567744 215.30089964170372 8.777643008973415
  endloop
endfacet
facet normal 3.1290180332388806e-05 -0.6087614311207186 -0.7933533380535934
  outer loop
    vertex 68.96452085010631 214.92810744021736 9.063696527956326
    vertex 72.16451894386687 215.3009919508 8.777698387021692
    vertex 72.16452084829572 214.92819974931365 9.063751906004605
  endloop
endfacet
facet normal 3.3420546784450476e-05 -0.793353341776038 -0.6087614261563067
  outer loop
    vertex 72.16452222490275 215.58704546750502 8.404906183796948
    vertex 68.96451894567744 215.30089964170372 8.777643008973415
    vertex 68.96452222671331 215.58695315840873 8.404850805748671
  endloop
endfacet
facet normal 3.3420546784450476e-05 -0.793353341776038 -0.6087614261563067
  outer loop
    vertex 68.96451894567744 215.30089964170372 8.777643008973415
    vertex 72.16452222490275 215.58704546750502 8.404906183796948
    vertex 72.16451894386687 215.3009919508 8.777698387021692
  endloop
endfacet
facet normal 3.327335820315829e-05 -0.9238795332723907 -0.382683429081105
  outer loop
    vertex 72.16453046780619 215.7668662249909 7.970780468911894
    vertex 68.96452222671331 215.58695315840873 8.404850805748671
    vertex 68.96453046961675 215.76677391589465 7.970725090863617
  endloop
endfacet
facet normal 3.327335820315829e-05 -0.9238795332723907 -0.382683429081105
  outer loop
    vertex 68.96452222671331 215.58695315840873 8.404850805748671
    vertex 72.16453046780619 215.7668662249909 7.970780468911894
    vertex 72.16452222490275 215.58704546750502 8.404906183796948
  endloop
endfacet
facet normal 3.0858645246819634e-05 -0.9914448613547374 -0.1305261887171683
  outer loop
    vertex 72.16454311083695 215.8281997358029 7.50490619240928
    vertex 68.96453046961675 215.76677391589465 7.970725090863617
    vertex 68.9645431126475 215.82810742670662 7.504850814361002
  endloop
endfacet
facet normal 3.0858645246819634e-05 -0.9914448613547374 -0.1305261887171683
  outer loop
    vertex 68.96453046961675 215.76677391589465 7.970725090863617
    vertex 72.16454311083695 215.8281997358029 7.50490619240928
    vertex 72.16453046780619 215.7668662249909 7.970780468911894
  endloop
endfacet
facet normal 2.6340966612832245e-05 -0.9914448605647345 0.1305261957077111
  outer loop
    vertex 72.16455929239336 215.7668662225376 7.0390319163391135
    vertex 68.9645431126475 215.82810742670662 7.504850814361002
    vertex 68.96455929420392 215.7667739134413 7.038976538290837
  endloop
endfacet
facet normal 2.6340966612832245e-05 -0.9914448605647345 0.1305261957077111
  outer loop
    vertex 68.9645431126475 215.82810742670662 7.504850814361002
    vertex 72.16455929239336 215.7668662225376 7.0390319163391135
    vertex 72.16454311083695 215.8281997358029 7.50490619240928
  endloop
endfacet
facet normal 2.0028194634448328e-05 -0.923879530956275 0.38268343559512075
  outer loop
    vertex 72.1645779097291 215.58704546276562 6.604906202721937
    vertex 68.96455929420392 215.7667739134413 7.038976538290837
    vertex 68.96457791153968 215.58695315366933 6.604850824673659
  endloop
endfacet
facet normal 2.0028194634448328e-05 -0.923879530956275 0.38268343559512075
  outer loop
    vertex 68.96455929420392 215.7667739134413 7.038976538290837
    vertex 72.1645779097291 215.58704546276562 6.604906202721937
    vertex 72.16455929239336 215.7668662225376 7.0390319163391135
  endloop
endfacet
facet normal 1.2350534289938552e-05 -0.7933533380916047 0.6087614317500516
  outer loop
    vertex 72.16459769410353 215.30099194409752 6.232114001514097
    vertex 68.96457791153968 215.58695315366933 6.604850824673659
    vertex 68.96459769591411 215.30089963500123 6.23205862346582
  endloop
endfacet
facet normal 1.2350534289938552e-05 -0.7933533380916047 0.6087614317500516
  outer loop
    vertex 68.96457791153968 215.58695315366933 6.604850824673659
    vertex 72.16459769410353 215.30099194409752 6.232114001514097
    vertex 72.1645779097291 215.58704546276562 6.604906202721937
  endloop
endfacet
facet normal 3.831205444119089e-06 -0.6087614263189978 0.7933533423458816
  outer loop
    vertex 68.96461729905478 214.92810743200846 5.946005107111389
    vertex 72.16459769410353 215.30099194409752 6.232114001514097
    vertex 68.96459769591411 215.30089963500123 6.23205862346582
  endloop
endfacet
facet normal 3.831205444119089e-06 -0.6087614263189978 0.7933533423458816
  outer loop
    vertex 72.16459769410353 215.30099194409752 6.232114001514097
    vertex 68.96461729905478 214.92810743200846 5.946005107111389
    vertex 72.16461729724422 214.92819974110475 5.946060485159666
  endloop
endfacet
facet normal -4.949213720949934e-06 -0.38268342937970323 0.9238795337346178
  outer loop
    vertex 68.96463538504007 214.4939817172568 5.766184350024135
    vertex 72.16461729724422 214.92819974110475 5.946060485159666
    vertex 68.96461729905478 214.92810743200846 5.946005107111389
  endloop
endfacet
facet normal -4.949213720949934e-06 -0.38268342937970323 0.9238795337346178
  outer loop
    vertex 72.16461729724422 214.92819974110475 5.946060485159666
    vertex 68.96463538504007 214.4939817172568 5.766184350024135
    vertex 72.16463538322948 214.49407402635308 5.766239728072412
  endloop
endfacet
facet normal -1.3392352019016502e-05 -0.13052619335088614 0.991444861134482
  outer loop
    vertex 72.1645035114836 214.02819974562962 5.704906213125949
    vertex 68.96463538504007 214.4939817172568 5.766184350024135
    vertex 68.96450351329416 214.02810743653333 5.704850835077672
  endloop
endfacet
facet normal -1.3392352019016502e-05 -0.13052619335088614 0.991444861134482
  outer loop
    vertex 68.96463538504007 214.4939817172568 5.766184350024135
    vertex 72.1645035114836 214.02819974562962 5.704906213125949
    vertex 72.16463538322948 214.49407402635308 5.766239728072412
  endloop
endfacet
facet normal -2.0922824022852733e-05 0.13052619935148196 0.9914448602141688
  outer loop
    vertex 68.96466226281095 213.56223316462578 5.766184353308916
    vertex 72.1645035114836 214.02819974562962 5.704906213125949
    vertex 68.96450351329416 214.02810743653333 5.704850835077672
  endloop
endfacet
facet normal -2.0922824022852733e-05 0.13052619935148196 0.9914448602141688
  outer loop
    vertex 72.1645035114836 214.02819974562962 5.704906213125949
    vertex 68.96466226281095 213.56223316462578 5.766184353308916
    vertex 72.16466226100037 213.56232547372207 5.766239731357194
  endloop
endfacet
facet normal -2.7027439800382165e-05 0.38268343497135787 0.9238795310364009
  outer loop
    vertex 68.96466922292086 213.12810745082103 5.9460051134571
    vertex 72.16466226100037 213.56232547372207 5.766239731357194
    vertex 68.96466226281095 213.56223316462578 5.766184353308916
  endloop
endfacet
facet normal -2.7027439800382165e-05 0.38268343497135787 0.9238795310364009
  outer loop
    vertex 72.16466226100037 213.56232547372207 5.766239731357194
    vertex 68.96466922292086 213.12810745082103 5.9460051134571
    vertex 72.16466922111027 213.12819975991732 5.946060491505378
  endloop
endfacet
facet normal -3.129018033238879e-05 0.6087614311207177 0.7933533380535942
  outer loop
    vertex 68.96467112734973 212.75531524933467 6.232058632440011
    vertex 72.16466922111027 213.12819975991732 5.946060491505378
    vertex 68.96466922292086 213.12810745082103 5.9460051134571
  endloop
endfacet
facet normal -3.129018033238879e-05 0.6087614311207177 0.7933533380535942
  outer loop
    vertex 72.16466922111027 213.12819975991732 5.946060491505378
    vertex 68.96467112734973 212.75531524933467 6.232058632440011
    vertex 72.16467112553916 212.75540755843096 6.232114010488289
  endloop
endfacet
facet normal -3.3420546784450476e-05 0.7933533417760373 0.6087614261563074
  outer loop
    vertex 68.96466784631386 212.46926173262966 6.604850835664755
    vertex 72.16467112553916 212.75540755843096 6.232114010488289
    vertex 68.96467112734973 212.75531524933467 6.232058632440011
  endloop
endfacet
facet normal -3.3420546784450476e-05 0.7933533417760373 0.6087614261563074
  outer loop
    vertex 72.16467112553916 212.75540755843096 6.232114010488289
    vertex 68.96466784631386 212.46926173262966 6.604850835664755
    vertex 72.16466784450328 212.46935404172595 6.604906213713032
  endloop
endfacet
facet normal -3.327335820315829e-05 0.9238795332723911 0.3826834290811039
  outer loop
    vertex 68.96465960341042 212.28944097514375 7.03897655054981
    vertex 72.16466784450328 212.46935404172595 6.604906213713032
    vertex 68.96466784631386 212.46926173262966 6.604850835664755
  endloop
endfacet
facet normal -3.327335820315829e-05 0.9238795332723911 0.3826834290811039
  outer loop
    vertex 72.16466784450328 212.46935404172595 6.604906213713032
    vertex 68.96465960341042 212.28944097514375 7.03897655054981
    vertex 72.16465960159985 212.28953328424004 7.039031928598087
  endloop
endfacet
facet normal -3.0858645246819634e-05 0.9914448613547374 0.1305261887171683
  outer loop
    vertex 68.96464696037967 212.22810746433177 7.504850827052425
    vertex 72.16465960159985 212.28953328424004 7.039031928598087
    vertex 68.96465960341042 212.28944097514375 7.03897655054981
  endloop
endfacet
facet normal -3.0858645246819634e-05 0.9914448613547374 0.1305261887171683
  outer loop
    vertex 72.16465960159985 212.28953328424004 7.039031928598087
    vertex 68.96464696037967 212.22810746433177 7.504850827052425
    vertex 72.1646469585691 212.22819977342806 7.504906205100702
  endloop
endfacet
facet normal -2.6340966612832245e-05 0.9914448605647345 -0.1305261957077111
  outer loop
    vertex 68.96463077882325 212.28944097759708 7.97072510312259
    vertex 72.1646469585691 212.22819977342806 7.504906205100702
    vertex 68.96464696037967 212.22810746433177 7.504850827052425
  endloop
endfacet
facet normal -2.6340966612832245e-05 0.9914448605647345 -0.1305261957077111
  outer loop
    vertex 72.1646469585691 212.22819977342806 7.504906205100702
    vertex 68.96463077882325 212.28944097759708 7.97072510312259
    vertex 72.16463077701268 212.28953328669337 7.970780481170868
  endloop
endfacet
facet normal -2.0028194634448297e-05 0.9238795309562745 -0.3826834355951218
  outer loop
    vertex 68.9646121614875 212.46926173736907 8.404850816739765
    vertex 72.16463077701268 212.28953328669337 7.970780481170868
    vertex 68.96463077882325 212.28944097759708 7.97072510312259
  endloop
endfacet
facet normal -2.0028194634448297e-05 0.9238795309562745 -0.3826834355951218
  outer loop
    vertex 72.16463077701268 212.28953328669337 7.970780481170868
    vertex 68.9646121614875 212.46926173736907 8.404850816739765
    vertex 72.1646121596769 212.46935404646536 8.404906194788044
  endloop
endfacet
facet normal -1.2350534289938608e-05 0.7933533380916057 -0.6087614317500502
  outer loop
    vertex 68.96459237711306 212.75531525603716 8.777643017947607
    vertex 72.1646121596769 212.46935404646536 8.404906194788044
    vertex 68.9646121614875 212.46926173736907 8.404850816739765
  endloop
endfacet
facet normal -1.2350534289938608e-05 0.7933533380916057 -0.6087614317500502
  outer loop
    vertex 72.1646121596769 212.46935404646536 8.404906194788044
    vertex 68.96459237711306 212.75531525603716 8.777643017947607
    vertex 72.16459237530248 212.75540756513345 8.777698395995884
  endloop
endfacet
facet normal -3.831205444119089e-06 0.6087614263189978 -0.7933533423458816
  outer loop
    vertex 72.16457277216182 213.12819976812622 9.063751912350314
    vertex 68.96459237711306 212.75531525603716 8.777643017947607
    vertex 68.96457277397239 213.12810745902993 9.063696534302037
  endloop
endfacet
facet normal -3.831205444119089e-06 0.6087614263189978 -0.7933533423458816
  outer loop
    vertex 68.96459237711306 212.75531525603716 8.777643017947607
    vertex 72.16457277216182 213.12819976812622 9.063751912350314
    vertex 72.16459237530248 212.75540756513345 8.777698395995884
  endloop
endfacet
facet normal 4.949213720949934e-06 0.38268342937970323 -0.9238795337346178
  outer loop
    vertex 72.16455468617652 213.5623254828779 9.243572669437569
    vertex 68.96457277397239 213.12810745902993 9.063696534302037
    vertex 68.9645546879871 213.5622331737816 9.243517291389292
  endloop
endfacet
facet normal 4.949213720949934e-06 0.38268342937970323 -0.9238795337346178
  outer loop
    vertex 68.96457277397239 213.12810745902993 9.063696534302037
    vertex 72.16455468617652 213.5623254828779 9.243572669437569
    vertex 72.16457277216182 213.12819976812622 9.063751912350314
  endloop
endfacet
facet normal -0.9999999988482258 -2.884659269766292e-05 -3.835912710085541e-05
  outer loop
    vertex 72.16422193653557 240.8962020269828 7.996053861375751
    vertex 72.164250761123 240.89620201977942 7.064305304913479
    vertex 72.16423811809211 240.83486851108643 7.5301795836735215
  endloop
endfacet
facet normal -0.9999999988482258 -2.884659269766292e-05 -3.835912710085541e-05
  outer loop
    vertex 72.164250761123 240.89620201977942 7.064305304913479
    vertex 72.16422193653557 240.8962020269828 7.996053861375751
    vertex 72.16425900402656 241.07602277580278 6.630179587299475
  endloop
endfacet
facet normal -0.9999999988482258 -2.884659269766292e-05 -3.835912710085541e-05
  outer loop
    vertex 72.16425900402656 241.07602277580278 6.630179587299475
    vertex 72.16422193653557 240.8962020269828 7.996053861375751
    vertex 72.16420331919969 241.07602278971868 8.430179575888408
  endloop
endfacet
facet normal -0.9999999988482258 -2.884659269766292e-05 -3.835912710085541e-05
  outer loop
    vertex 72.16425900402656 241.07602277580278 6.630179587299475
    vertex 72.16420331919969 241.07602278971868 8.430179575888408
    vertex 72.16426228506255 241.36207629180132 6.257387381060231
  endloop
endfacet
facet normal -0.9999999988482258 -2.884659269766292e-05 -3.835912710085541e-05
  outer loop
    vertex 72.16426228506255 241.36207629180132 6.257387381060231
    vertex 72.16420331919969 241.07602278971868 8.430179575888408
    vertex 72.16418353482517 241.36207631148133 8.802971777194118
  endloop
endfacet
facet normal -0.9999999988482258 -2.884659269766292e-05 -3.835912710085541e-05
  outer loop
    vertex 72.16426228506255 241.36207629180132 6.257387381060231
    vertex 72.16418353482517 241.36207631148133 8.802971777194118
    vertex 72.16426038063378 241.73486849338556 5.971333858982706
  endloop
endfacet
facet normal -0.9999999988482258 -2.884659269766292e-05 -3.835912710085541e-05
  outer loop
    vertex 72.16426038063378 241.73486849338556 5.971333858982706
    vertex 72.16418353482517 241.36207631148133 8.802971777194118
    vertex 72.16416393168443 241.73486851748862 9.08902529284214
  endloop
endfacet
facet normal -0.9999999988482258 -2.884659269766292e-05 -3.835912710085541e-05
  outer loop
    vertex 72.16426038063378 241.73486849338556 5.971333858982706
    vertex 72.16416393168443 241.73486851748862 9.08902529284214
    vertex 72.16425342052392 242.16899420808582 5.791513095870685
  endloop
endfacet
facet normal -0.9999999988482258 -2.884659269766292e-05 -3.835912710085541e-05
  outer loop
    vertex 72.16425342052392 242.16899420808582 5.791513095870685
    vertex 72.16416393168443 241.73486851748862 9.08902529284214
    vertex 72.16414584569911 242.16899423496926 9.268846048466843
  endloop
endfacet
facet normal -0.9999999988482258 -2.884659269766292e-05 -3.835912710085541e-05
  outer loop
    vertex 72.16425342052392 242.16899420808582 5.791513095870685
    vertex 72.16414584569911 242.16899423496926 9.268846048466843
    vertex 72.16432204866463 242.6348684881845 5.730179582042517
  endloop
endfacet
facet normal -0.9999999988482258 -2.884659269766292e-05 -3.835912710085541e-05
  outer loop
    vertex 72.16432204866463 242.6348684881845 5.730179582042517
    vertex 72.16414584569911 242.16899423496926 9.268846048466843
    vertex 72.16405033978756 242.63486851139106 9.330179554260129
  endloop
endfacet
facet normal -0.9999999988482258 -2.884659269766292e-05 -3.835912710085541e-05
  outer loop
    vertex 72.16432204866463 242.6348684881845 5.730179582042517
    vertex 72.16405033978756 242.63486851139106 9.330179554260129
    vertex 72.16422654275308 243.10074276460628 5.791513087835804
  endloop
endfacet
facet normal -0.9999999988482258 -2.884659269766292e-05 -3.835912710085541e-05
  outer loop
    vertex 72.16422654275308 243.10074276460628 5.791513087835804
    vertex 72.16405033978756 242.63486851139106 9.330179554260129
    vertex 72.16411896792827 243.10074279148972 9.268846040431962
  endloop
endfacet
facet normal -0.9999999988482258 -2.884659269766292e-05 -3.835912710085541e-05
  outer loop
    vertex 72.16422654275308 243.10074276460628 5.791513087835804
    vertex 72.16411896792827 243.10074279148972 9.268846040431962
    vertex 72.16420845676777 243.53486848208695 5.971333843460507
  endloop
endfacet
facet normal -0.9999999988482258 -2.884659269766292e-05 -3.835912710085541e-05
  outer loop
    vertex 72.16420845676777 243.53486848208695 5.971333843460507
    vertex 72.16411896792827 243.10074279148972 9.268846040431962
    vertex 72.16411200781842 243.53486850618998 9.089025277319939
  endloop
endfacet
facet normal -0.9999999988482258 -2.884659269766292e-05 -3.835912710085541e-05
  outer loop
    vertex 72.16420845676777 243.53486848208695 5.971333843460507
    vertex 72.16411200781842 243.53486850618998 9.089025277319939
    vertex 72.16418885362702 243.90766068809418 6.257387359108528
  endloop
endfacet
facet normal -0.9999999988482258 -2.884659269766292e-05 -3.835912710085541e-05
  outer loop
    vertex 72.16418885362702 243.90766068809418 6.257387359108528
    vertex 72.16411200781842 243.53486850618998 9.089025277319939
    vertex 72.16411010338965 243.90766070777426 8.802971755242414
  endloop
endfacet
facet normal -0.9999999988482258 -2.884659269766292e-05 -3.835912710085541e-05
  outer loop
    vertex 72.16418885362702 243.90766068809418 6.257387359108528
    vertex 72.16411010338965 243.90766070777426 8.802971755242414
    vertex 72.16416906925251 244.1937142098569 6.630179560414238
  endloop
endfacet
facet normal -0.9999999988482258 -2.884659269766292e-05 -3.835912710085541e-05
  outer loop
    vertex 72.16416906925251 244.1937142098569 6.630179560414238
    vertex 72.16411010338965 243.90766070777426 8.802971755242414
    vertex 72.16411338442565 244.19371422377276 8.43017954900317
  endloop
endfacet
facet normal -0.9999999988482258 -2.884659269766292e-05 -3.835912710085541e-05
  outer loop
    vertex 72.16416906925251 244.1937142098569 6.630179560414238
    vertex 72.16411338442565 244.19371422377276 8.43017954900317
    vertex 72.16415045191663 244.37353497259275 7.064305274926894
  endloop
endfacet
facet normal -0.9999999988482258 -2.884659269766292e-05 -3.835912710085541e-05
  outer loop
    vertex 72.16415045191663 244.37353497259275 7.064305274926894
    vertex 72.16411338442565 244.19371422377276 8.43017954900317
    vertex 72.1641216273292 244.37353497979612 7.996053831389166
  endloop
endfacet
facet normal -0.9999999988482258 -2.884659269766292e-05 -3.835912710085541e-05
  outer loop
    vertex 72.16415045191663 244.37353497259275 7.064305274926894
    vertex 72.1641216273292 244.37353497979612 7.996053831389166
    vertex 72.1641342703601 244.43486848848914 7.530179552629125
  endloop
endfacet
facet normal -2.4400099641844465e-05 -0.38268342525214727 0.9238795351353549
  outer loop
    vertex 68.96422654643877 243.10065045550965 5.791390338629081
    vertex 72.16420845676777 243.53486848208695 5.971333843460507
    vertex 68.96420846045345 243.5347761729903 5.971211094253785
  endloop
endfacet
facet normal -2.4400099641844465e-05 -0.38268342525214727 0.9238795351353549
  outer loop
    vertex 72.16420845676777 243.53486848208695 5.971333843460507
    vertex 68.96422654643877 243.10065045550965 5.791390338629081
    vertex 72.16422654275308 243.10074276460628 5.791513087835804
  endloop
endfacet
facet normal -4.179619557421599e-05 0.13052620085971356 0.9914448593553794
  outer loop
    vertex 72.16425342052392 242.16899420808582 5.791513095870685
    vertex 68.96432205235031 242.63477617908785 5.730056832835795
    vertex 68.9642534242096 242.1689018989892 5.791390346663962
  endloop
endfacet
facet normal -4.179619557421599e-05 0.13052620085971356 0.9914448593553794
  outer loop
    vertex 68.96432205235031 242.63477617908785 5.730056832835795
    vertex 72.16425342052392 242.16899420808582 5.791513095870685
    vertex 72.16432204866463 242.6348684881845 5.730179582042517
  endloop
endfacet
facet normal -4.647832561555315e-05 0.38268343914158703 0.923879528535259
  outer loop
    vertex 68.96426038431946 241.73477618428893 5.971211109775983
    vertex 72.16425342052392 242.16899420808582 5.791513095870685
    vertex 68.9642534242096 242.1689018989892 5.791390346663962
  endloop
endfacet
facet normal -4.647832561555315e-05 0.38268343914158703 0.923879528535259
  outer loop
    vertex 72.16425342052392 242.16899420808582 5.791513095870685
    vertex 68.96426038431946 241.73477618428893 5.971211109775983
    vertex 72.16426038063378 241.73486849338556 5.971333858982706
  endloop
endfacet
facet normal -4.7993034605026865e-05 0.6087614347084459 0.7933533344660395
  outer loop
    vertex 68.96426228874823 241.36198398270466 6.257264631853508
    vertex 72.16426038063378 241.73486849338556 5.971333858982706
    vertex 68.96426038431946 241.73477618428893 5.971211109775983
  endloop
endfacet
facet normal -4.7993034605026865e-05 0.6087614347084459 0.7933533344660395
  outer loop
    vertex 72.16426038063378 241.73486849338556 5.971333858982706
    vertex 68.96426228874823 241.36198398270466 6.257264631853508
    vertex 72.16426228506255 241.36207629180132 6.257387381060231
  endloop
endfacet
facet normal -4.623709759844931e-05 0.7933533445291026 0.6087614217299072
  outer loop
    vertex 68.96425900771224 241.07593046670613 6.630056838092752
    vertex 72.16426228506255 241.36207629180132 6.257387381060231
    vertex 68.96426228874823 241.36198398270466 6.257264631853508
  endloop
endfacet
facet normal -4.623709759844931e-05 0.7933533445291026 0.6087614217299072
  outer loop
    vertex 72.16426228506255 241.36207629180132 6.257387381060231
    vertex 68.96425900771224 241.07593046670613 6.630056838092752
    vertex 72.16425900402656 241.07602277580278 6.630179587299475
  endloop
endfacet
facet normal -4.133017880086946e-05 0.9238795349997568 0.38268342412554235
  outer loop
    vertex 68.96425076480868 240.8961097106828 7.064182555706757
    vertex 72.16425900402656 241.07602277580278 6.630179587299475
    vertex 68.96425900771224 241.07593046670613 6.630056838092752
  endloop
endfacet
facet normal -4.133017880086946e-05 0.9238795349997568 0.38268342412554235
  outer loop
    vertex 72.16425900402656 241.07602277580278 6.630179587299475
    vertex 68.96425076480868 240.8961097106828 7.064182555706757
    vertex 72.164250761123 240.89620201977942 7.064305304913479
  endloop
endfacet
facet normal -3.360667661919381e-05 0.9914448619419908 0.13052618357792622
  outer loop
    vertex 68.96423812177778 240.83477620198977 7.530056834466798
    vertex 72.164250761123 240.89620201977942 7.064305304913479
    vertex 68.96425076480868 240.8961097106828 7.064182555706757
  endloop
endfacet
facet normal -3.360667661919381e-05 0.9914448619419908 0.13052618357792622
  outer loop
    vertex 72.164250761123 240.89620201977942 7.064305304913479
    vertex 68.96423812177778 240.83477620198977 7.530056834466798
    vertex 72.16423811809211 240.83486851108643 7.5301795836735215
  endloop
endfacet
facet normal -2.3592934963430137e-05 0.9914448599796886 -0.13052620067721668
  outer loop
    vertex 68.96422194022125 240.89610971788613 7.9959311121690275
    vertex 72.16423811809211 240.83486851108643 7.5301795836735215
    vertex 68.96423812177778 240.83477620198977 7.530056834466798
  endloop
endfacet
facet normal -2.3592934963430137e-05 0.9914448599796886 -0.13052620067721668
  outer loop
    vertex 72.16423811809211 240.83486851108643 7.5301795836735215
    vertex 68.96422194022125 240.89610971788613 7.9959311121690275
    vertex 72.16422193653557 240.8962020269828 7.996053861375751
  endloop
endfacet
facet normal -1.1971373779032056e-05 0.9238795292465437 -0.3826834400596283
  outer loop
    vertex 68.96420332288537 241.07593048062202 8.430056826681684
    vertex 72.16422193653557 240.8962020269828 7.996053861375751
    vertex 68.96422194022125 240.89610971788613 7.9959311121690275
  endloop
endfacet
facet normal -1.1971373779032056e-05 0.9238795292465437 -0.3826834400596283
  outer loop
    vertex 72.16422193653557 240.8962020269828 7.996053861375751
    vertex 68.96420332288537 241.07593048062202 8.430056826681684
    vertex 72.16420331919969 241.07602278971868 8.430179575888408
  endloop
endfacet
facet normal 4.6601674467963667e-07 0.7933533353770883 -0.608761435412783
  outer loop
    vertex 68.96418353851085 241.3619840023847 8.802849027987394
    vertex 72.16420331919969 241.07602278971868 8.430179575888408
    vertex 68.96420332288537 241.07593048062202 8.430056826681684
  endloop
endfacet
facet normal 4.6601674467963667e-07 0.7933533353770883 -0.608761435412783
  outer loop
    vertex 72.16420331919969 241.07602278971868 8.430179575888408
    vertex 68.96418353851085 241.3619840023847 8.802849027987394
    vertex 72.16418353482517 241.36207631148133 8.802971777194118
  endloop
endfacet
facet normal 1.2871648997216753e-05 0.6087614227812782 -0.7933533449653026
  outer loop
    vertex 72.16416393168443 241.73486851748862 9.08902529284214
    vertex 68.96418353851085 241.3619840023847 8.802849027987394
    vertex 68.96416393537011 241.73477620839196 9.088902543635415
  endloop
endfacet
facet normal 1.2871648997216753e-05 0.6087614227812782 -0.7933533449653026
  outer loop
    vertex 68.96418353851085 241.3619840023847 8.802849027987394
    vertex 72.16416393168443 241.73486851748862 9.08902529284214
    vertex 72.16418353482517 241.36207631148133 8.802971777194118
  endloop
endfacet
facet normal 2.4400099641844465e-05 0.38268342525214727 -0.9238795351353549
  outer loop
    vertex 72.16414584569911 242.16899423496926 9.268846048466843
    vertex 68.96416393537011 241.73477620839196 9.088902543635415
    vertex 68.96414584938479 242.16890192587263 9.268723299260119
  endloop
endfacet
facet normal 2.4400099641844465e-05 0.38268342525214727 -0.9238795351353549
  outer loop
    vertex 68.96416393537011 241.73477620839196 9.088902543635415
    vertex 72.16414584569911 242.16899423496926 9.268846048466843
    vertex 72.16416393168443 241.73486851748862 9.08902529284214
  endloop
endfacet
facet normal 3.4265723776713264e-05 0.13052618595449733 -0.9914448616065505
  outer loop
    vertex 72.16405033978756 242.63486851139106 9.330179554260129
    vertex 68.96414584938479 242.16890192587263 9.268723299260119
    vertex 68.96405034347325 242.6347762022944 9.330056805053404
  endloop
endfacet
facet normal 3.4265723776713264e-05 0.13052618595449733 -0.9914448616065505
  outer loop
    vertex 68.96414584938479 242.16890192587263 9.268723299260119
    vertex 72.16405033978756 242.63486851139106 9.330179554260129
    vertex 72.16414584569911 242.16899423496926 9.268846048466843
  endloop
endfacet
facet normal 4.179619557421599e-05 -0.13052620085971356 -0.9914448593553794
  outer loop
    vertex 68.96411897161396 243.1006504823931 9.268723291225237
    vertex 72.16405033978756 242.63486851139106 9.330179554260129
    vertex 68.96405034347325 242.6347762022944 9.330056805053404
  endloop
endfacet
facet normal 4.179619557421599e-05 -0.13052620085971356 -0.9914448593553794
  outer loop
    vertex 72.16405033978756 242.63486851139106 9.330179554260129
    vertex 68.96411897161396 243.1006504823931 9.268723291225237
    vertex 72.16411896792827 243.10074279148972 9.268846040431962
  endloop
endfacet
facet normal 4.647832561555317e-05 -0.3826834391415883 -0.9238795285352586
  outer loop
    vertex 72.16411200781842 243.53486850618998 9.089025277319939
    vertex 68.96411897161396 243.1006504823931 9.268723291225237
    vertex 68.9641120115041 243.53477619709332 9.088902528113216
  endloop
endfacet
facet normal 4.647832561555317e-05 -0.3826834391415883 -0.9238795285352586
  outer loop
    vertex 68.96411897161396 243.1006504823931 9.268723291225237
    vertex 72.16411200781842 243.53486850618998 9.089025277319939
    vertex 72.16411896792827 243.10074279148972 9.268846040431962
  endloop
endfacet
facet normal 4.799303460502686e-05 -0.608761434708445 -0.7933533344660402
  outer loop
    vertex 72.16411010338965 243.90766070777426 8.802971755242414
    vertex 68.9641120115041 243.53477619709332 9.088902528113216
    vertex 68.96411010707533 243.9075683986776 8.802849006035691
  endloop
endfacet
facet normal 4.799303460502686e-05 -0.608761434708445 -0.7933533344660402
  outer loop
    vertex 68.9641120115041 243.53477619709332 9.088902528113216
    vertex 72.16411010338965 243.90766070777426 8.802971755242414
    vertex 72.16411200781842 243.53486850618998 9.089025277319939
  endloop
endfacet
facet normal 4.623709759844931e-05 -0.7933533445291026 -0.6087614217299072
  outer loop
    vertex 72.16411338442565 244.19371422377276 8.43017954900317
    vertex 68.96411010707533 243.9075683986776 8.802849006035691
    vertex 68.96411338811131 244.19362191467613 8.430056799796448
  endloop
endfacet
facet normal 4.623709759844931e-05 -0.7933533445291026 -0.6087614217299072
  outer loop
    vertex 68.96411010707533 243.9075683986776 8.802849006035691
    vertex 72.16411338442565 244.19371422377276 8.43017954900317
    vertex 72.16411010338965 243.90766070777426 8.802971755242414
  endloop
endfacet
facet normal 4.133017880086946e-05 -0.9238795349997568 -0.38268342412554235
  outer loop
    vertex 72.1641216273292 244.37353497979612 7.996053831389166
    vertex 68.96411338811131 244.19362191467613 8.430056799796448
    vertex 68.96412163101488 244.3734426706995 7.995931082182444
  endloop
endfacet
facet normal 4.133017880086946e-05 -0.9238795349997568 -0.38268342412554235
  outer loop
    vertex 68.96411338811131 244.19362191467613 8.430056799796448
    vertex 72.1641216273292 244.37353497979612 7.996053831389166
    vertex 72.16411338442565 244.19371422377276 8.43017954900317
  endloop
endfacet
facet normal 3.360667661919381e-05 -0.9914448619419908 -0.13052618357792622
  outer loop
    vertex 72.1641342703601 244.43486848848914 7.530179552629125
    vertex 68.96412163101488 244.3734426706995 7.995931082182444
    vertex 68.96413427404578 244.4347761793925 7.530056803422402
  endloop
endfacet
facet normal 3.360667661919381e-05 -0.9914448619419908 -0.13052618357792622
  outer loop
    vertex 68.96412163101488 244.3734426706995 7.995931082182444
    vertex 72.1641342703601 244.43486848848914 7.530179552629125
    vertex 72.1641216273292 244.37353497979612 7.996053831389166
  endloop
endfacet
facet normal 2.359293496343016e-05 -0.9914448599796888 0.13052620067721632
  outer loop
    vertex 72.16415045191663 244.37353497259275 7.064305274926894
    vertex 68.96413427404578 244.4347761793925 7.530056803422402
    vertex 68.96415045560231 244.37344266349612 7.06418252572017
  endloop
endfacet
facet normal 2.359293496343016e-05 -0.9914448599796888 0.13052620067721632
  outer loop
    vertex 68.96413427404578 244.4347761793925 7.530056803422402
    vertex 72.16415045191663 244.37353497259275 7.064305274926894
    vertex 72.1641342703601 244.43486848848914 7.530179552629125
  endloop
endfacet
facet normal 1.1971373779032056e-05 -0.9238795292465437 0.3826834400596283
  outer loop
    vertex 72.16416906925251 244.1937142098569 6.630179560414238
    vertex 68.96415045560231 244.37344266349612 7.06418252572017
    vertex 68.96416907293819 244.19362190076023 6.630056811207514
  endloop
endfacet
facet normal 1.1971373779032056e-05 -0.9238795292465437 0.3826834400596283
  outer loop
    vertex 68.96415045560231 244.37344266349612 7.06418252572017
    vertex 72.16416906925251 244.1937142098569 6.630179560414238
    vertex 72.16415045191663 244.37353497259275 7.064305274926894
  endloop
endfacet
facet normal -4.6601674468337933e-07 -0.7933533353770409 0.608761435412845
  outer loop
    vertex 72.16418885362702 243.90766068809418 6.257387359108528
    vertex 68.96416907293819 244.19362190076023 6.630056811207514
    vertex 68.9641888573127 243.90756837899752 6.257264609901806
  endloop
endfacet
facet normal -4.6601674468337933e-07 -0.7933533353770409 0.608761435412845
  outer loop
    vertex 68.96416907293819 244.19362190076023 6.630056811207514
    vertex 72.16418885362702 243.90766068809418 6.257387359108528
    vertex 72.16416906925251 244.1937142098569 6.630179560414238
  endloop
endfacet
facet normal -1.2871648997214049e-05 -0.6087614227813246 0.7933533449652671
  outer loop
    vertex 68.96420846045345 243.5347761729903 5.971211094253785
    vertex 72.16418885362702 243.90766068809418 6.257387359108528
    vertex 68.9641888573127 243.90756837899752 6.257264609901806
  endloop
endfacet
facet normal -1.2871648997214049e-05 -0.6087614227813246 0.7933533449652671
  outer loop
    vertex 72.16418885362702 243.90766068809418 6.257387359108528
    vertex 68.96420846045345 243.5347761729903 5.971211094253785
    vertex 72.16420845676777 243.53486848208695 5.971333843460507
  endloop
endfacet
endsolid servo
